<svg xmlns="http://www.w3.org/2000/svg" width="100" height="100" viewBox="0 0 24 24" fill="none" stroke="#D4AF37" stroke-width="1.75" stroke-linecap="round" stroke-linejoin="round">
  <circle cx="12" cy="12" r="2.5" />
  <!-- 5 petals with smooth bezier curves radiating from center -->
  <path d="M12 9.5C12 6.5 9.5 3 12 2C14.5 3 12 6.5 12 9.5Z" />
  <path d="M14.38 11.23C17.23 10.3 20.88 10 21.51 12.38C20.88 14.76 17.23 13.7 14.38 12.77" />
  <path d="M13.47 13.53C15.23 15.96 17.06 19.34 15.11 20.76C13.16 22.18 12.47 18.3 12.71 15.35" />
  <path d="M10.53 13.53C8.77 15.96 6.94 19.34 8.89 20.76C10.84 22.18 11.53 18.3 11.29 15.35" />
  <path d="M9.62 11.23C6.77 10.3 3.12 10 2.49 12.38C3.12 14.76 6.77 13.7 9.62 12.77" />
</svg>